<?xml version="1.0" standalone="no"?>
<!DOCTYPE svg PUBLIC "-//W3C//DTD SVG 20010904//EN"
 "http://www.w3.org/TR/2001/REC-SVG-20010904/DTD/svg10.dtd">
<svg version="1.0" xmlns="http://www.w3.org/2000/svg"
 width="110.000000pt" height="110.000000pt" viewBox="0 0 110.000000 110.000000"
 preserveAspectRatio="xMidYMid meet">
<metadata>
Created by potrace 1.14, written by Peter Selinger 2001-2017
</metadata>
<g transform="translate(0.000000,110.000000) scale(0.100000,-0.100000)"
fill="#000000" stroke="none">
<path d="M234 1019 c-10 -17 13 -33 62 -44 l45 -10 40 -95 c22 -52 53 -123 69
-158 47 -98 47 -98 -8 -213 -27 -57 -71 -156 -97 -219 -25 -63 -50 -119 -54
-125 -5 -5 -11 -22 -15 -37 -5 -21 -13 -27 -46 -33 -41 -7 -54 -28 -24 -39 9
-3 100 -6 204 -6 149 0 207 4 281 20 161 34 210 54 195 79 -10 16 -53 13 -130
-9 -60 -17 -223 -33 -389 -38 -37 -1 -39 0 -32 26 3 15 18 50 32 77 14 28 45
91 70 140 24 50 51 106 61 125 9 19 22 34 27 33 11 -2 10 1 60 -103 47 -95
144 -240 162 -240 25 0 13 39 -51 162 -35 68 -78 161 -95 208 l-32 86 35 83
c20 45 51 108 69 139 18 31 40 72 48 91 l14 33 62 -6 c34 -3 64 -2 67 2 17 27
-69 60 -187 71 -133 13 -434 13 -443 0z m374 -59 c74 0 80 -10 43 -63 -17 -25
-31 -50 -31 -55 0 -5 -7 -15 -16 -23 -8 -7 -27 -34 -40 -61 -13 -26 -28 -48
-32 -48 -4 0 -34 57 -68 125 l-60 124 59 0 c32 -1 61 2 65 5 3 4 12 4 20 1 7
-3 35 -5 60 -5z"/>
</g>
</svg>
